<?xml version="1.0" encoding="iso-8859-1"?>
<!-- Uploaded to: SVG Repo, www.svgrepo.com, Generator: SVG Repo Mixer Tools -->
<svg version="1.1" id="Layer_1" xmlns="http://www.w3.org/2000/svg" xmlns:xlink="http://www.w3.org/1999/xlink" 
	 viewBox="0 0 464 464" xml:space="preserve">
<g>
	<polygon style="fill:#42210B;" points="344,312 344,328 288,328 288,320 288,312 	"/>
	<circle style="fill:#42210B;" cx="328" cy="40" r="16"/>
	<circle style="fill:#42210B;" cx="264" cy="40" r="8"/>
</g>
<rect x="208" y="416" style="fill:#FFF8EF;" width="48" height="8"/>
<g>
	<polygon style="fill:#EE5656;" points="249.6,320 224,336.8 224,303.2 	"/>
	<circle style="fill:#EE5656;" cx="240" cy="120" r="16"/>
</g>
<g>
	<circle style="fill:#42210B;" cx="232" cy="40" r="8"/>
	<path style="fill:#42210B;" d="M208,120c0-17.6,14.4-32,32-32s32,14.4,32,32s-14.4,32-32,32S208,137.6,208,120z M240,104
		c-8.8,0-16,7.2-16,16s7.2,16,16,16c8.8,0,16-7.2,16-16S248.8,104,240,104z"/>
	<path style="fill:#42210B;" d="M268,326.4l-48,32c-0.8,0.8-2.4,1.6-4,1.6s-2.4,0-4-0.8c-2.4-1.6-4-4-4-7.2v-64c0-3.2,1.6-5.6,4-7.2
		s5.6-1.6,8,0l48,32c2.4,1.6,4,4,4,6.4S270.4,325.6,268,326.4z M224,336.8l25.6-16.8L224,303.2V336.8z"/>
</g>
<g>
	<path style="fill:#FFF8EF;" d="M312,208v-40c0-4-4-8-8-8s-8,4-8,8v64c0,12.8-10.4,24-24,24s-24-11.2-24-24v-48c0-4-4-8-8-8
		s-8,4-8,8v48c0,12.8-10.4,24-24,24s-24-11.2-24-24v-64c0-4-4-8-8-8s-8,4-8,8v48c0,4-4,8-8,8h-56v152h112h144v-64v-96h-40
		C316,216,312,212,312,208z M192,328h-72v-16h72V328z M268,326.4l-48,32c-0.8,0.8-2.4,1.6-4,1.6s-2.4,0-4-0.8c-2.4-1.6-4-4-4-7.2
		v-64c0-3.2,1.6-5.6,4-7.2s5.6-1.6,8,0l48,32c2.4,1.6,4,4,4,6.4C272,322.4,270.4,324.8,268,326.4z M344,328h-56v-8v-8h56V328z"/>
	<path style="fill:#FFF8EF;" d="M240,80H104v128h48v-40c0-13.6,10.4-24,24-24s24,10.4,24,24v64c0,4,4,8,8,8s8-4,8-8v-48
		c0-13.6,10.4-24,24-24s24,10.4,24,24v48c0,4,4,8,8,8s8-4,8-8v-64c0-13.6,10.4-24,24-24s24,10.4,24,24v32h32V80H240z M240,152
		c-17.6,0-32-14.4-32-32s14.4-32,32-32s32,14.4,32,32S257.6,152,240,152z"/>
</g>
<g>
	<circle style="fill:#42210B;" cx="200" cy="40" r="8"/>
	<path style="fill:#42210B;" d="M272,408v24c0,4-4,8-8,8h-64c-4,0-8-4-8-8v-24c0-4,4-8,8-8h64C268,400,272,404,272,408z M256,424v-8
		h-48v8H256z"/>
</g>
<path style="fill:#FF9900;" d="M264,392H112v32c0,8.8,8,16,17.6,16H200c-4,0-8-4-8-8v-24c0-4,4-8,8-8h64c4,0,8,4,8,8v24c0,4-4,8-8,8
	h70.4c9.6,0,17.6-7.2,17.6-16v-32H264z"/>
<g>
	<rect x="120" y="312" style="fill:#42210B;" width="72" height="16"/>
	<circle style="fill:#42210B;" cx="168" cy="40" r="8"/>
</g>
<path style="fill:#FF9900;" d="M264,32c-4,0-8,3.2-8,8s4,8,8,8s8-3.2,8-8S268,32,264,32z M232,32c-4,0-8,3.2-8,8s4,8,8,8s8-3.2,8-8
	S236,32,232,32z M200,32c-4,0-8,3.2-8,8s4,8,8,8s8-3.2,8-8S204,32,200,32z M344,40c0-8.8-7.2-16-16-16h6.4c9.6,0,17.6,7.2,17.6,15.2
	V64H112V39.2c0-8,8-15.2,17.6-15.2H328c-8.8,0-16,7.2-16,16s7.2,16,16,16S344,48.8,344,40z M168,48c4,0,8-3.2,8-8s-4-8-8-8
	s-8,3.2-8,8S164,48,168,48z"/>
<g>
	<path style="fill:#FF7D00;" d="M360,429.6c0,10.4-8,18.4-18.4,18.4H264H122.4c-10.4,0-18.4-8-18.4-18.4V392h8v32
		c0,8.8,8,16,17.6,16H200h64h70.4c9.6,0,17.6-7.2,17.6-16v-32h8V429.6z"/>
	<path style="fill:#FF7D00;" d="M341.6,16C352,16,360,24,360,34.4V64h-8V39.2c0-8-8-15.2-17.6-15.2H328H129.6
		C120,24,112,31.2,112,39.2V64h-8V34.4C104,24,112,16,122.4,16H341.6z"/>
</g>
<path style="fill:#42210B;" d="M104,429.6c0,10.4,8,18.4,18.4,18.4H264h77.6c10.4,0,18.4-8,18.4-18.4V392h-8h-88H112h-8V429.6z
	 M376,429.6c0,19.2-15.2,34.4-34.4,34.4H122.4c-19.2,0-34.4-15.2-34.4-34.4V34.4C88,15.2,103.2,0,122.4,0h219.2
	C360.8,0,376,15.2,376,34.4V429.6z M176,144c12.8,0,24,11.2,24,24v64c0,4,4,8,8,8s8-4,8-8v-48c0-12.8,11.2-24,24-24
	c13.6,0,24,11.2,24,24v48c0,4,4,8,8,8s8-4,8-8v-64c0-12.8,10.4-24,24-24s24,11.2,24,24v32h32V80H240H104v128h48v-40
	C152,155.2,163.2,144,176,144z M176,160c-4,0-8,4-8,8v48c0,4-4,8-8,8h-56v152h112h144v-64v-96h-40c-4,0-8-4-8-8v-40c0-4-4-8-8-8
	s-8,4-8,8v64c0,13.6-10.4,24-24,24s-24-10.4-24-24v-48c0-4-4-8-8-8s-8,4-8,8v48c0,13.6-11.2,24-24,24s-24-10.4-24-24v-64
	C184,164,180,160,176,160z M104,64h8h240h8V34.4C360,24,352,16,341.6,16H122.4C112,16,104,24,104,34.4V64z"/>
<g>
	<path style="fill:#E0CBB5;" d="M240,80H104v128h8v-92c0-11.2,8.8-20,20-20h87.2c5.6-4.8,12.8-8,20.8-8s15.2,3.2,20.8,8H328
		c13.6,0,24,11.2,24,24v80h8V80H240z"/>
	<path style="fill:#E0CBB5;" d="M352,357.6c0,5.6-4.8,10.4-10.4,10.4h-224c-3.2,0-5.6-2.4-5.6-5.6V224h-8v152h112h144v-64v-96h-8
		V357.6z"/>
</g>
</svg>